<svg aria-hidden="true" style="position: absolute; width: 0; height: 0; overflow: hidden;" version="1.1" xmlns="http://www.w3.org/2000/svg" xmlns:xlink="http://www.w3.org/1999/xlink">
<defs>
<symbol id="icon-fb" viewBox="0 0 17 32">
<path fill="#f4f4fd" style="fill: var(--color1, #f4f4fd)" d="M13.329 5.313h2.921v-5.088c-0.504-0.069-2.237-0.225-4.256-0.225-4.212 0-7.097 2.649-7.097 7.519v4.481h-4.648v5.688h4.648v14.312h5.699v-14.311h4.46l0.708-5.688h-5.169v-3.919c0.001-1.644 0.444-2.769 2.735-2.769z"></path>
</symbol>
<symbol id="icon-instagram" viewBox="0 0 32 32">
<path fill="#f4f4fd" style="fill: var(--color1, #f4f4fd)" d="M31.969 9.408c-0.076-1.7-0.351-2.869-0.744-3.883-0.424-1.111-1.054-2.058-1.849-2.836l-0.001-0.001c-0.78-0.792-1.724-1.419-2.778-1.826l-0.054-0.018c-1.019-0.393-2.183-0.671-3.883-0.744-1.712-0.080-2.256-0.1-6.599-0.1-4.348 0-4.892 0.019-6.599 0.093-1.699 0.076-2.868 0.351-3.88 0.744-1.112 0.424-2.059 1.054-2.837 1.849l-0.001 0.001c-0.792 0.78-1.419 1.724-1.826 2.778l-0.018 0.054c-0.393 1.019-0.669 2.181-0.744 3.88-0.080 1.715-0.1 2.259-0.1 6.603 0 4.345 0.019 4.889 0.093 6.596 0.076 1.7 0.351 2.868 0.745 3.881 0.426 1.111 1.055 2.057 1.848 2.838l0.001 0.001c0.8 0.813 1.769 1.444 2.832 1.844 1.019 0.393 2.181 0.668 3.883 0.744 1.707 0.075 2.249 0.093 6.595 0.093 4.344 0 4.888-0.019 6.595-0.093 1.7-0.076 2.869-0.351 3.883-0.744 2.157-0.85 3.832-2.526 4.662-4.627l0.019-0.055c0.395-1.019 0.669-2.181 0.744-3.881 0.075-1.707 0.093-2.251 0.093-6.596 0-4.344-0.005-4.888-0.080-6.595zM29.087 22.473c-0.068 1.563-0.331 2.407-0.549 2.969-0.551 1.399-1.639 2.486-3.003 3.025l-0.036 0.013c-0.563 0.22-1.413 0.481-2.969 0.551-1.688 0.075-2.193 0.093-6.464 0.093-4.269 0-4.781-0.019-6.464-0.093-1.563-0.069-2.407-0.331-2.969-0.551-0.721-0.269-1.335-0.676-1.836-1.192l-0.001-0.001c-0.517-0.504-0.924-1.117-1.183-1.803l-0.011-0.034c-0.219-0.563-0.48-1.413-0.549-2.969-0.075-1.688-0.093-2.195-0.093-6.464 0-4.271 0.019-4.783 0.093-6.464 0.069-1.563 0.331-2.407 0.549-2.969 0.257-0.693 0.664-1.325 1.2-1.839 0.504-0.517 1.119-0.923 1.806-1.182l0.034-0.011c0.561-0.219 1.412-0.48 2.968-0.551 1.688-0.075 2.195-0.093 6.464-0.093 4.276 0 4.781 0.019 6.464 0.093 1.563 0.069 2.407 0.332 2.969 0.551 0.693 0.256 1.325 0.663 1.837 1.193 0.532 0.52 0.937 1.144 1.195 1.839 0.219 0.563 0.48 1.413 0.549 2.969 0.075 1.688 0.093 2.193 0.093 6.464 0 4.269-0.019 4.769-0.093 6.457z"></path>
<path fill="#f4f4fd" style="fill: var(--color1, #f4f4fd)" d="M16.059 7.783c-4.539 0.002-8.218 3.681-8.22 8.22v0c0.001 4.54 3.68 8.22 8.22 8.221h0c4.54-0.001 8.221-3.681 8.221-8.221v-0c-0.002-4.54-3.682-8.219-8.221-8.22h-0zM16.059 21.336c-2.945-0.001-5.332-2.388-5.332-5.333s2.388-5.333 5.333-5.333c0 0 0.001 0 0.001 0h-0c2.945 0.001 5.332 2.388 5.332 5.333s-2.388 5.333-5.333 5.333c-0 0-0.001 0-0.001 0h0zM26.524 7.457c0 0.015 0.001 0.033 0.001 0.051 0 1.060-0.86 1.92-1.92 1.92s-1.92-0.86-1.92-1.92c0-0.018 0-0.036 0.001-0.053l-0 0.003c0.028-1.038 0.877-1.869 1.919-1.869s1.891 0.831 1.919 1.867l0 0.003z"></path>
</symbol>
<symbol id="icon-linkedin" viewBox="0 0 32 32">
<path fill="#f4f4fd" style="fill: var(--color1, #f4f4fd)" d="M31.992 32h0.008v-11.737c0-5.741-1.236-10.164-7.948-10.164-3.227 0-5.392 1.771-6.276 3.449h-0.093v-2.913h-6.364v21.365h6.627v-10.579c0-2.785 0.528-5.479 3.977-5.479 3.399 0 3.449 3.179 3.449 5.657v10.4h6.62zM0.528 10.636h6.635v21.364h-6.635v-21.364zM3.843 0c-2.122 0.001-3.842 1.721-3.843 3.843v0c0 2.121 1.721 3.879 3.843 3.879s3.843-1.757 3.843-3.879c-0.002-2.122-1.721-3.841-3.843-3.843h-0z"></path>
</symbol>
<symbol id="icon-twitter" viewBox="0 0 38 32">
<path fill="#f4f4fd" style="fill: var(--color1, #f4f4fd)" d="M38.4 4.094c-1.428 0.626-2.95 1.042-4.536 1.243 1.632-0.974 2.878-2.506 3.463-4.351-1.522 0.907-3.202 1.548-4.992 1.906-1.445-1.538-3.504-2.491-5.75-2.491-4.358 0-7.867 3.538-7.867 7.874 0 0.624 0.053 1.224 0.182 1.795-6.545-0.319-12.336-3.456-16.226-8.234-0.679 1.178-1.078 2.527-1.078 3.979 0 2.726 1.404 5.143 3.497 6.542-1.265-0.024-2.506-0.391-3.557-0.97 0 0.024 0 0.055 0 0.086 0 3.826 2.729 7.003 6.307 7.735-0.641 0.175-1.339 0.259-2.064 0.259-0.504 0-1.013-0.029-1.49-0.134 1.020 3.118 3.914 5.41 7.356 5.484-2.678 2.095-6.079 3.358-9.761 3.358-0.646 0-1.265-0.029-1.884-0.108 3.487 2.249 7.62 3.533 12.077 3.533 14.486 0 22.406-12 22.406-22.402 0-0.348-0.012-0.684-0.029-1.018 1.562-1.109 2.875-2.494 3.946-4.087z"></path>
</symbol>
</defs>
</svg>
